<svg xmlns="http://www.w3.org/2000/svg" xmlns:xlink="http://www.w3.org/1999/xlink" viewBox="220 450 1060 580" preserveAspectRatio="xMidYMid meet" version="1.0"><defs><g/><clipPath id="5d43c514c0"><path d="M 341.847656 476.71875 L 1157.847656 476.71875 L 1157.847656 792 L 341.847656 792 Z M 341.847656 476.71875 " clip-rule="nonzero"/></clipPath></defs><g clip-path="url(#5d43c514c0)"><path fill="#000000" d="M 1074.03125 783.699219 C 1091.722656 767.382812 1087.738281 732.25 1123.742188 728.011719 C 1090.664062 725.203125 1082.683594 759.566406 1069.132812 776.277344 C 1065.183594 781.152344 1058.902344 783.507812 1052.699219 782.59375 L 970.898438 770.546875 C 967.941406 770.109375 966.757812 766.464844 968.910156 764.390625 C 990.996094 743.105469 1015.328125 729.0625 1047.871094 741.464844 C 1018.015625 722.269531 988.859375 736.9375 959.867188 759.664062 C 954.601562 763.789062 947.742188 765.273438 941.226562 763.730469 C 901.101562 754.230469 862.421875 750.71875 825.785156 755.628906 C 831.992188 741.914062 846.046875 738.847656 846.046875 738.847656 C 887.90625 730.625 906.96875 725.390625 921.171875 702.964844 C 935.375 680.542969 952.441406 673.941406 1009.003906 677.675781 C 1048.121094 707.324219 1080.015625 701.84375 1080.015625 701.84375 C 1050.613281 703.835938 1026.195312 679.042969 1026.195312 679.042969 C 1099.824219 686.519531 1121.128906 652.132812 1121.128906 652.132812 C 1100.570312 671.941406 1053.480469 679.417969 1020.589844 670.449219 C 987.699219 661.476562 947.460938 662.226562 947.460938 662.226562 C 947.460938 662.226562 963.214844 625.382812 994.304688 619.371094 C 1047.375 613.390625 1057.839844 593.957031 1057.839844 593.957031 C 1043.808594 604.554688 1026.316406 611.019531 1004.769531 612.644531 C 1026.195312 594.707031 1023.582031 569.164062 1023.582031 569.164062 C 1015.359375 612.519531 991.25 611.773438 958.550781 625.972656 C 943.527344 632.5 903.238281 713.429688 856.519531 714.925781 C 814.929688 716.257812 795.257812 735.503906 791.441406 739.71875 C 788.21875 724.929688 786.011719 694.996094 811.296875 669.703125 C 846.429688 634.570312 875.394531 630.648438 881.003906 606.539062 C 886.609375 582.433594 877.640625 566.175781 937.625 558.324219 C 937.625 558.324219 977.425781 545.429688 992.5625 519.082031 C 992.5625 519.082031 964.53125 548.984375 932.390625 551.226562 C 900.25 553.46875 886.050781 562.8125 886.050781 562.8125 C 886.050781 562.8125 888.289062 516.09375 919.3125 502.640625 C 919.3125 502.640625 877.453125 516.46875 874.460938 574.027344 C 871.472656 631.585938 792.609375 637.9375 780.652344 667.460938 C 780.652344 667.460938 751.125 603.925781 772.054688 564.679688 C 792.980469 525.445312 836.320312 538.140625 862.859375 476.886719 C 862.28125 478.179688 845.394531 515.039062 794.480469 532.539062 C 747.824219 548.578125 745.472656 615.511719 764.554688 675.683594 C 764.554688 675.683594 767.941406 681.660156 760.09375 697.734375 C 752.246094 713.804688 750.003906 736.230469 750.003906 736.230469 C 750.003906 736.230469 747.761719 713.804688 739.914062 697.734375 C 732.0625 681.664062 735.449219 675.683594 735.449219 675.683594 C 754.535156 615.511719 752.183594 548.578125 705.523438 532.539062 C 654.609375 515.039062 637.722656 478.179688 637.148438 476.886719 C 663.6875 538.140625 707.023438 525.445312 727.949219 564.679688 C 748.878906 603.925781 719.351562 667.460938 719.351562 667.460938 C 707.394531 637.9375 628.53125 631.582031 625.542969 574.027344 C 622.554688 516.46875 580.691406 502.640625 580.691406 502.640625 C 611.714844 516.097656 613.957031 562.8125 613.957031 562.8125 C 613.957031 562.8125 599.753906 553.46875 567.613281 551.226562 C 535.46875 548.984375 507.441406 519.082031 507.441406 519.082031 C 522.578125 545.429688 562.382812 558.324219 562.382812 558.324219 C 622.367188 566.175781 613.398438 582.433594 619.003906 606.539062 C 624.609375 630.644531 653.574219 634.570312 688.707031 669.703125 C 713.996094 694.992188 711.785156 724.925781 708.5625 739.71875 C 704.746094 735.507812 685.074219 716.257812 643.484375 714.925781 C 596.765625 713.429688 556.476562 632.5 541.453125 625.972656 C 508.75 611.769531 484.644531 612.519531 476.421875 569.164062 C 476.421875 569.164062 473.804688 594.703125 495.238281 612.644531 C 473.691406 611.019531 456.195312 604.554688 442.164062 593.957031 C 442.164062 593.957031 452.632812 613.390625 505.703125 619.371094 C 536.789062 625.382812 552.542969 662.226562 552.542969 662.226562 C 552.542969 662.226562 512.304688 661.476562 479.417969 670.449219 C 446.527344 679.417969 399.433594 671.945312 378.878906 652.132812 C 378.878906 652.132812 400.183594 686.515625 473.808594 679.042969 C 473.808594 679.042969 449.390625 703.835938 419.988281 701.84375 C 419.988281 701.84375 451.882812 707.324219 491.003906 677.675781 C 547.5625 673.9375 564.628906 680.542969 578.835938 702.964844 C 593.039062 725.390625 612.097656 730.621094 653.957031 738.847656 C 653.957031 738.847656 668.015625 741.914062 674.21875 755.628906 C 637.582031 750.71875 598.90625 754.230469 558.777344 763.730469 C 552.265625 765.273438 545.402344 763.789062 540.136719 759.664062 C 511.144531 736.9375 481.988281 722.269531 452.136719 741.464844 C 484.679688 729.058594 509.011719 743.105469 531.097656 764.390625 C 533.25 766.464844 532.0625 770.109375 529.109375 770.546875 L 447.308594 782.59375 C 441.101562 783.507812 434.824219 781.152344 430.871094 776.277344 C 417.320312 759.5625 409.34375 725.203125 376.265625 728.011719 C 412.269531 732.25 408.28125 767.382812 425.972656 783.699219 C 393.972656 782.128906 366.230469 772.265625 341.878906 755.773438 C 426.148438 833.371094 603.324219 758.527344 673.46875 780.414062 C 677.183594 781.570312 681.035156 782.203125 684.929688 782.203125 L 729.457031 782.203125 L 747.773438 775.101562 L 752.257812 775.101562 L 770.574219 782.203125 L 815.101562 782.203125 C 818.988281 782.203125 822.847656 781.570312 826.5625 780.414062 C 896.703125 758.527344 1073.882812 833.371094 1158.144531 755.773438 C 1133.78125 772.265625 1106.03125 782.132812 1074.03125 783.699219 Z M 1074.03125 783.699219 " fill-opacity="1" fill-rule="nonzero"/></g><g fill="#000000" fill-opacity="1"><g transform="translate(260.197364, 913.332093)"><g><path d="M 35.6875 -73.609375 L 30.859375 -73.609375 C 30.710938 -73.609375 30.601562 -73.609375 30.53125 -73.609375 L 30.53125 -8.1875 C 30.601562 -6.25 31.328125 -4.585938 32.703125 -3.203125 C 34.085938 -1.816406 35.753906 -1.125 37.703125 -1.125 L 39.171875 -1.125 L 39.171875 0 L 5.046875 0 L 5.046875 -1.125 L 6.515625 -1.125 C 9.203125 -1.125 11.257812 -2.28125 12.6875 -4.59375 C 13.28125 -5.644531 13.613281 -6.804688 13.6875 -8.078125 L 13.6875 -70.359375 C 13.613281 -72.304688 12.882812 -73.972656 11.5 -75.359375 C 10.113281 -76.742188 8.453125 -77.4375 6.515625 -77.4375 L 5.046875 -77.4375 L 5.046875 -78.546875 L 43.546875 -78.546875 C 50.796875 -78.546875 56.925781 -76.976562 61.9375 -73.84375 C 64.488281 -72.269531 66.507812 -70.078125 68 -67.265625 C 69.5 -64.460938 70.25 -60.796875 70.25 -56.265625 C 70.25 -51.742188 68.675781 -47.390625 65.53125 -43.203125 C 62.394531 -39.015625 57.832031 -36.617188 51.84375 -36.015625 C 56.1875 -34.597656 60.003906 -31.304688 63.296875 -26.140625 C 71.367188 -13.203125 77.351562 -5.5 81.25 -3.03125 C 83.195312 -1.832031 85.628906 -1.195312 88.546875 -1.125 L 88.546875 0 L 77.546875 0 C 71.035156 0 65.628906 -0.859375 61.328125 -2.578125 C 57.023438 -4.296875 53.640625 -7.328125 51.171875 -11.671875 C 49.753906 -14.140625 46.648438 -20.535156 41.859375 -30.859375 C 39.765625 -35.421875 37.222656 -37.925781 34.234375 -38.375 L 34.234375 -39.5 L 37.703125 -39.5 C 41.066406 -39.5 44.039062 -40.507812 46.625 -42.53125 C 49.207031 -44.550781 50.945312 -47.84375 51.84375 -52.40625 C 52.144531 -53.976562 52.296875 -55.210938 52.296875 -56.109375 C 52.296875 -62.242188 51.0625 -66.675781 48.59375 -69.40625 C 46.125 -72.132812 42.941406 -73.535156 39.046875 -73.609375 C 38.304688 -73.609375 37.1875 -73.609375 35.6875 -73.609375 Z M 35.6875 -73.609375 "/></g></g></g><g fill="#000000" fill-opacity="1"><g transform="translate(366.347051, 913.332093)"><g><path d="M 17.453125 -69.125 C 25.421875 -76.457031 36.15625 -80.125 49.65625 -80.125 C 63.15625 -80.125 73.890625 -76.457031 81.859375 -69.125 C 89.828125 -61.789062 93.8125 -51.835938 93.8125 -39.265625 C 93.8125 -26.703125 89.828125 -16.753906 81.859375 -9.421875 C 73.890625 -2.085938 63.15625 1.578125 49.65625 1.578125 C 36.15625 1.578125 25.421875 -2.085938 17.453125 -9.421875 C 9.484375 -16.753906 5.5 -26.703125 5.5 -39.265625 C 5.5 -51.835938 9.484375 -61.789062 17.453125 -69.125 Z M 30.796875 -12.84375 C 35.398438 -6.375 41.664062 -3.140625 49.59375 -3.140625 C 57.53125 -3.140625 63.816406 -6.375 68.453125 -12.84375 C 73.085938 -19.320312 75.40625 -28.132812 75.40625 -39.28125 C 75.40625 -50.425781 73.085938 -59.234375 68.453125 -65.703125 C 63.816406 -72.171875 57.53125 -75.40625 49.59375 -75.40625 C 41.664062 -75.40625 35.398438 -72.171875 30.796875 -65.703125 C 26.203125 -59.234375 23.90625 -50.425781 23.90625 -39.28125 C 23.90625 -28.132812 26.203125 -19.320312 30.796875 -12.84375 Z M 30.796875 -12.84375 "/></g></g></g><g fill="#000000" fill-opacity="1"><g transform="translate(487.195849, 913.332093)"><g><path d="M 51.390625 1.515625 C 36.953125 1.472656 25.617188 -2.171875 17.390625 -9.421875 C 9.160156 -16.679688 5.046875 -26.628906 5.046875 -39.265625 C 5.046875 -51.910156 9.125 -61.878906 17.28125 -69.171875 C 25.4375 -76.472656 36.617188 -80.125 50.828125 -80.125 C 61.679688 -80.125 71 -78.101562 78.78125 -74.0625 L 79 -54.765625 L 78.109375 -54.765625 C 74.285156 -68.523438 65.566406 -75.40625 51.953125 -75.40625 C 43.128906 -75.40625 36.15625 -72.207031 31.03125 -65.8125 C 25.90625 -59.414062 23.34375 -50.679688 23.34375 -39.609375 C 23.34375 -28.535156 25.789062 -19.742188 30.6875 -13.234375 C 35.59375 -6.734375 42.234375 -3.367188 50.609375 -3.140625 C 59.285156 -3.140625 65.90625 -5.3125 70.46875 -9.65625 C 75.113281 -14.144531 78.332031 -21.847656 80.125 -32.765625 L 81.015625 -32.765625 L 82.140625 -13.46875 C 76.078125 -3.4375 65.828125 1.554688 51.390625 1.515625 Z M 51.390625 1.515625 "/></g></g></g><g fill="#000000" fill-opacity="1"><g transform="translate(597.048386, 913.332093)"><g><path d="M 6.171875 -1.125 C 8.117188 -1.125 9.78125 -1.816406 11.15625 -3.203125 C 12.539062 -4.585938 13.273438 -6.25 13.359375 -8.1875 L 13.359375 -70.46875 C 13.273438 -73.164062 12.039062 -75.1875 9.65625 -76.53125 C 8.601562 -77.132812 7.441406 -77.4375 6.171875 -77.4375 L 4.71875 -77.4375 L 4.71875 -78.546875 L 38.828125 -78.546875 L 38.71875 -77.4375 L 37.375 -77.4375 C 34.675781 -77.4375 32.617188 -76.273438 31.203125 -73.953125 C 30.523438 -72.898438 30.1875 -71.738281 30.1875 -70.46875 L 30.1875 -8.1875 C 30.1875 -6.25 30.894531 -4.585938 32.3125 -3.203125 C 33.738281 -1.816406 35.425781 -1.125 37.375 -1.125 L 38.71875 -1.125 L 38.828125 0 L 4.71875 0 L 4.71875 -1.125 Z M 87.1875 0 L 77.984375 0 C 66.617188 0 58.578125 -3.101562 53.859375 -9.3125 C 40.472656 -27.488281 33.78125 -36.726562 33.78125 -37.03125 L 60.375 -72.265625 C 60.96875 -73.015625 61.265625 -73.6875 61.265625 -74.28125 C 61.265625 -74.882812 61.15625 -75.410156 60.9375 -75.859375 C 60.332031 -76.984375 59.285156 -77.546875 57.796875 -77.546875 L 56.671875 -77.546875 L 56.671875 -78.546875 L 82.375 -78.546875 L 82.375 -77.546875 L 81.921875 -77.546875 C 76.910156 -77.546875 72.832031 -75.75 69.6875 -72.15625 L 47.8125 -46.234375 L 75.75 -8.078125 C 79.1875 -3.585938 83 -1.269531 87.1875 -1.125 Z M 87.1875 0 "/></g></g></g><g fill="#000000" fill-opacity="1"><g transform="translate(704.320143, 913.332093)"><g><path d="M 95.15625 0 C 86.550781 0.675781 80.976562 0.828125 78.4375 0.453125 C 72.457031 -0.597656 67.707031 -2.132812 64.1875 -4.15625 C 58.351562 -0.632812 51.019531 1.125 42.1875 1.125 C 29.394531 1.125 19.257812 -1.53125 11.78125 -6.84375 C 9.238281 -8.71875 7.144531 -11.148438 5.5 -14.140625 C 3.851562 -17.128906 3.03125 -20.269531 3.03125 -23.5625 C 3.03125 -26.851562 3.515625 -29.675781 4.484375 -32.03125 C 5.460938 -34.394531 6.8125 -36.363281 8.53125 -37.9375 C 11.664062 -40.925781 15.332031 -43.128906 19.53125 -44.546875 C 16.238281 -49.710938 14.59375 -54.6875 14.59375 -59.46875 C 14.59375 -64.257812 15.898438 -68.226562 18.515625 -71.375 C 23.523438 -77.207031 31.269531 -80.125 41.75 -80.125 C 46.457031 -80.125 50.867188 -79.429688 54.984375 -78.046875 C 59.097656 -76.660156 62.09375 -74.695312 63.96875 -72.15625 L 59.921875 -56.109375 L 58.921875 -56.109375 C 58.835938 -61.640625 57.632812 -66.238281 55.3125 -69.90625 C 53 -73.570312 49.707031 -75.40625 45.4375 -75.40625 C 41.175781 -75.40625 37.867188 -74.171875 35.515625 -71.703125 C 33.160156 -69.234375 31.984375 -66.015625 31.984375 -62.046875 C 31.984375 -58.085938 33.421875 -54.238281 36.296875 -50.5 C 39.179688 -46.757812 44.753906 -41.28125 53.015625 -34.0625 C 61.285156 -26.84375 66.316406 -22.484375 68.109375 -20.984375 C 69.085938 -24.128906 69.578125 -27.269531 69.578125 -30.40625 C 69.578125 -33.550781 68.804688 -36.734375 67.265625 -39.953125 C 65.734375 -43.171875 63.507812 -44.78125 60.59375 -44.78125 C 60.59375 -44.78125 60.554688 -44.78125 60.484375 -44.78125 L 58.796875 -44.78125 L 58.796875 -45.890625 L 85.0625 -45.890625 L 85.0625 -44.78125 L 83.484375 -44.78125 C 83.484375 -44.78125 83.445312 -44.78125 83.375 -44.78125 C 81.882812 -44.78125 80.875 -44.289062 80.34375 -43.3125 C 79.820312 -42.34375 79.5625 -40.882812 79.5625 -38.9375 L 79.5625 -37.03125 C 79.5625 -28.5 77.953125 -21.242188 74.734375 -15.265625 C 79.523438 -11.148438 83.453125 -7.96875 86.515625 -5.71875 C 89.585938 -3.476562 92.46875 -1.984375 95.15625 -1.234375 Z M 46.34375 -3.59375 C 51.207031 -3.59375 55.472656 -4.9375 59.140625 -7.625 C 53.003906 -12.414062 46.363281 -17.894531 39.21875 -24.0625 C 32.070312 -30.238281 26.929688 -35.195312 23.796875 -38.9375 C 21.773438 -35.800781 20.765625 -32.132812 20.765625 -27.9375 C 20.765625 -20.082031 23.328125 -14.0625 28.453125 -9.875 C 33.578125 -5.6875 39.539062 -3.59375 46.34375 -3.59375 Z M 46.34375 -3.59375 "/></g></g></g><g fill="#000000" fill-opacity="1"><g transform="translate(817.202228, 913.332093)"><g><path d="M 35.6875 -73.609375 L 30.859375 -73.609375 C 30.710938 -73.609375 30.601562 -73.609375 30.53125 -73.609375 L 30.53125 -8.1875 C 30.601562 -6.25 31.328125 -4.585938 32.703125 -3.203125 C 34.085938 -1.816406 35.753906 -1.125 37.703125 -1.125 L 39.171875 -1.125 L 39.171875 0 L 5.046875 0 L 5.046875 -1.125 L 6.515625 -1.125 C 9.203125 -1.125 11.257812 -2.28125 12.6875 -4.59375 C 13.28125 -5.644531 13.613281 -6.804688 13.6875 -8.078125 L 13.6875 -70.359375 C 13.613281 -72.304688 12.882812 -73.972656 11.5 -75.359375 C 10.113281 -76.742188 8.453125 -77.4375 6.515625 -77.4375 L 5.046875 -77.4375 L 5.046875 -78.546875 L 43.546875 -78.546875 C 50.796875 -78.546875 56.925781 -76.976562 61.9375 -73.84375 C 64.488281 -72.269531 66.507812 -70.078125 68 -67.265625 C 69.5 -64.460938 70.25 -60.796875 70.25 -56.265625 C 70.25 -51.742188 68.675781 -47.390625 65.53125 -43.203125 C 62.394531 -39.015625 57.832031 -36.617188 51.84375 -36.015625 C 56.1875 -34.597656 60.003906 -31.304688 63.296875 -26.140625 C 71.367188 -13.203125 77.351562 -5.5 81.25 -3.03125 C 83.195312 -1.832031 85.628906 -1.195312 88.546875 -1.125 L 88.546875 0 L 77.546875 0 C 71.035156 0 65.628906 -0.859375 61.328125 -2.578125 C 57.023438 -4.296875 53.640625 -7.328125 51.171875 -11.671875 C 49.753906 -14.140625 46.648438 -20.535156 41.859375 -30.859375 C 39.765625 -35.421875 37.222656 -37.925781 34.234375 -38.375 L 34.234375 -39.5 L 37.703125 -39.5 C 41.066406 -39.5 44.039062 -40.507812 46.625 -42.53125 C 49.207031 -44.550781 50.945312 -47.84375 51.84375 -52.40625 C 52.144531 -53.976562 52.296875 -55.210938 52.296875 -56.109375 C 52.296875 -62.242188 51.0625 -66.675781 48.59375 -69.40625 C 46.125 -72.132812 42.941406 -73.535156 39.046875 -73.609375 C 38.304688 -73.609375 37.1875 -73.609375 35.6875 -73.609375 Z M 35.6875 -73.609375 "/></g></g></g><g fill="#000000" fill-opacity="1"><g transform="translate(923.351939, 913.332093)"><g><path d="M 17.453125 -69.125 C 25.421875 -76.457031 36.15625 -80.125 49.65625 -80.125 C 63.15625 -80.125 73.890625 -76.457031 81.859375 -69.125 C 89.828125 -61.789062 93.8125 -51.835938 93.8125 -39.265625 C 93.8125 -26.703125 89.828125 -16.753906 81.859375 -9.421875 C 73.890625 -2.085938 63.15625 1.578125 49.65625 1.578125 C 36.15625 1.578125 25.421875 -2.085938 17.453125 -9.421875 C 9.484375 -16.753906 5.5 -26.703125 5.5 -39.265625 C 5.5 -51.835938 9.484375 -61.789062 17.453125 -69.125 Z M 30.796875 -12.84375 C 35.398438 -6.375 41.664062 -3.140625 49.59375 -3.140625 C 57.53125 -3.140625 63.816406 -6.375 68.453125 -12.84375 C 73.085938 -19.320312 75.40625 -28.132812 75.40625 -39.28125 C 75.40625 -50.425781 73.085938 -59.234375 68.453125 -65.703125 C 63.816406 -72.171875 57.53125 -75.40625 49.59375 -75.40625 C 41.664062 -75.40625 35.398438 -72.171875 30.796875 -65.703125 C 26.203125 -59.234375 23.90625 -50.425781 23.90625 -39.28125 C 23.90625 -28.132812 26.203125 -19.320312 30.796875 -12.84375 Z M 30.796875 -12.84375 "/></g></g></g><g fill="#000000" fill-opacity="1"><g transform="translate(1044.200714, 913.332093)"><g><path d="M 17.453125 -69.125 C 25.421875 -76.457031 36.15625 -80.125 49.65625 -80.125 C 63.15625 -80.125 73.890625 -76.457031 81.859375 -69.125 C 89.828125 -61.789062 93.8125 -51.835938 93.8125 -39.265625 C 93.8125 -26.703125 89.828125 -16.753906 81.859375 -9.421875 C 73.890625 -2.085938 63.15625 1.578125 49.65625 1.578125 C 36.15625 1.578125 25.421875 -2.085938 17.453125 -9.421875 C 9.484375 -16.753906 5.5 -26.703125 5.5 -39.265625 C 5.5 -51.835938 9.484375 -61.789062 17.453125 -69.125 Z M 30.796875 -12.84375 C 35.398438 -6.375 41.664062 -3.140625 49.59375 -3.140625 C 57.53125 -3.140625 63.816406 -6.375 68.453125 -12.84375 C 73.085938 -19.320312 75.40625 -28.132812 75.40625 -39.28125 C 75.40625 -50.425781 73.085938 -59.234375 68.453125 -65.703125 C 63.816406 -72.171875 57.53125 -75.40625 49.59375 -75.40625 C 41.664062 -75.40625 35.398438 -72.171875 30.796875 -65.703125 C 26.203125 -59.234375 23.90625 -50.425781 23.90625 -39.28125 C 23.90625 -28.132812 26.203125 -19.320312 30.796875 -12.84375 Z M 30.796875 -12.84375 "/></g></g></g><g fill="#000000" fill-opacity="1"><g transform="translate(1165.04958, 913.332093)"><g><path d="M 45.890625 -73.953125 L 45.890625 -8.078125 C 45.972656 -6.128906 46.703125 -4.484375 48.078125 -3.140625 C 49.460938 -1.796875 51.128906 -1.125 53.078125 -1.125 L 54.421875 -1.125 L 54.53125 0 L 20.421875 0 L 20.421875 -1.125 L 21.875 -1.125 C 23.75 -1.125 25.378906 -1.796875 26.765625 -3.140625 C 28.148438 -4.484375 28.914062 -6.09375 29.0625 -7.96875 L 29.0625 -73.953125 L 13.921875 -73.953125 C 10.472656 -73.878906 7.738281 -72.796875 5.71875 -70.703125 C 3.695312 -68.609375 2.6875 -65.875 2.6875 -62.5 L 2.6875 -61.15625 L 1.578125 -61.15625 L 1.578125 -80.6875 C 4.640625 -79.414062 9.050781 -78.742188 14.8125 -78.671875 L 60.03125 -78.671875 C 62.351562 -78.671875 64.878906 -78.894531 67.609375 -79.34375 C 70.335938 -79.789062 72.226562 -80.238281 73.28125 -80.6875 L 73.28125 -61.15625 L 72.15625 -61.15625 L 72.15625 -62.5 C 72.15625 -67.144531 70.394531 -70.4375 66.875 -72.375 C 65.226562 -73.351562 63.25 -73.878906 60.9375 -73.953125 Z M 45.890625 -73.953125 "/></g></g></g><g fill="#000000" fill-opacity="1"><g transform="translate(438.550517, 997.29119)"><g><path d="M 2.796875 -0.515625 C 3.679688 -0.515625 4.4375 -0.828125 5.0625 -1.453125 C 5.695312 -2.078125 6.03125 -2.832031 6.0625 -3.71875 L 6.0625 -31.984375 C 6.03125 -32.859375 5.695312 -33.601562 5.0625 -34.21875 C 4.4375 -34.832031 3.679688 -35.140625 2.796875 -35.140625 L 2.140625 -35.140625 L 2.140625 -35.640625 L 17.625 -35.640625 L 17.5625 -35.140625 L 16.953125 -35.140625 C 16.078125 -35.140625 15.316406 -34.832031 14.671875 -34.21875 C 14.023438 -33.601562 13.703125 -32.859375 13.703125 -31.984375 L 13.703125 -3.71875 C 13.703125 -2.832031 14.023438 -2.078125 14.671875 -1.453125 C 15.316406 -0.828125 16.078125 -0.515625 16.953125 -0.515625 L 17.5625 -0.515625 L 17.625 0 L 2.140625 0 L 2.140625 -0.515625 Z M 2.796875 -0.515625 "/></g></g></g><g fill="#000000" fill-opacity="1"><g transform="translate(489.730357, 997.29119)"><g><path d="M 41.609375 -35.140625 C 40.421875 -35.140625 39.519531 -34.628906 38.90625 -33.609375 C 38.632812 -33.171875 38.484375 -32.660156 38.453125 -32.078125 L 38.453125 -5.8125 C 38.453125 -3.53125 38.601562 -1.609375 38.90625 -0.046875 L 39.0625 0.71875 L 38.59375 0.71875 L 12.890625 -23.78125 L 12.890625 -3.5625 C 12.890625 -2.71875 13.191406 -2 13.796875 -1.40625 C 14.410156 -0.8125 15.140625 -0.515625 15.984375 -0.515625 L 16.953125 -0.515625 L 16.953125 0 L 1.53125 0 L 1.53125 -0.515625 L 2.4375 -0.515625 C 3.320312 -0.515625 4.066406 -0.8125 4.671875 -1.40625 C 5.285156 -2 5.59375 -2.734375 5.59375 -3.609375 L 5.59375 -30.046875 C 5.59375 -32.285156 5.441406 -34.148438 5.140625 -35.640625 L 5.046875 -36.40625 L 5.5 -36.40625 L 31.21875 -11.921875 L 31.21875 -32.03125 C 31.1875 -32.914062 30.863281 -33.65625 30.25 -34.25 C 29.632812 -34.84375 28.90625 -35.140625 28.0625 -35.140625 L 27.140625 -35.140625 L 27.140625 -35.640625 L 42.578125 -35.640625 L 42.578125 -35.140625 Z M 41.609375 -35.140625 "/></g></g></g><g fill="#000000" fill-opacity="1"><g transform="translate(565.2999, 997.29119)"><g><path d="M 2.796875 -0.515625 C 3.679688 -0.515625 4.4375 -0.828125 5.0625 -1.453125 C 5.695312 -2.078125 6.03125 -2.832031 6.0625 -3.71875 L 6.0625 -31.984375 C 6.03125 -32.859375 5.695312 -33.601562 5.0625 -34.21875 C 4.4375 -34.832031 3.679688 -35.140625 2.796875 -35.140625 L 2.140625 -35.140625 L 2.140625 -35.640625 L 17.625 -35.640625 L 17.5625 -35.140625 L 16.953125 -35.140625 C 16.078125 -35.140625 15.316406 -34.832031 14.671875 -34.21875 C 14.023438 -33.601562 13.703125 -32.859375 13.703125 -31.984375 L 13.703125 -3.71875 C 13.703125 -2.832031 14.023438 -2.078125 14.671875 -1.453125 C 15.316406 -0.828125 16.078125 -0.515625 16.953125 -0.515625 L 17.5625 -0.515625 L 17.625 0 L 2.140625 0 L 2.140625 -0.515625 Z M 2.796875 -0.515625 "/></g></g></g><g fill="#000000" fill-opacity="1"><g transform="translate(616.479739, 997.29119)"><g><path d="M 20.828125 -33.5625 L 20.828125 -3.671875 C 20.859375 -2.785156 21.1875 -2.035156 21.8125 -1.421875 C 22.445312 -0.816406 23.207031 -0.515625 24.09375 -0.515625 L 24.703125 -0.515625 L 24.75 0 L 9.265625 0 L 9.265625 -0.515625 L 9.9375 -0.515625 C 10.78125 -0.515625 11.515625 -0.816406 12.140625 -1.421875 C 12.773438 -2.035156 13.125 -2.765625 13.1875 -3.609375 L 13.1875 -33.5625 L 6.3125 -33.5625 C 4.75 -33.519531 3.507812 -33.023438 2.59375 -32.078125 C 1.675781 -31.128906 1.21875 -29.890625 1.21875 -28.359375 L 1.21875 -27.75 L 0.71875 -27.75 L 0.71875 -36.609375 C 2.101562 -36.035156 4.101562 -35.734375 6.71875 -35.703125 L 27.25 -35.703125 C 28.300781 -35.703125 29.445312 -35.800781 30.6875 -36 C 31.925781 -36.207031 32.78125 -36.410156 33.25 -36.609375 L 33.25 -27.75 L 32.75 -27.75 L 32.75 -28.359375 C 32.75 -30.460938 31.945312 -31.957031 30.34375 -32.84375 C 29.601562 -33.28125 28.707031 -33.519531 27.65625 -33.5625 Z M 20.828125 -33.5625 "/></g></g></g><g fill="#000000" fill-opacity="1"><g transform="translate(681.916616, 997.29119)"><g><path d="M 2.796875 -0.515625 C 3.679688 -0.515625 4.4375 -0.828125 5.0625 -1.453125 C 5.695312 -2.078125 6.03125 -2.832031 6.0625 -3.71875 L 6.0625 -31.984375 C 6.03125 -32.859375 5.695312 -33.601562 5.0625 -34.21875 C 4.4375 -34.832031 3.679688 -35.140625 2.796875 -35.140625 L 2.140625 -35.140625 L 2.140625 -35.640625 L 17.625 -35.640625 L 17.5625 -35.140625 L 16.953125 -35.140625 C 16.078125 -35.140625 15.316406 -34.832031 14.671875 -34.21875 C 14.023438 -33.601562 13.703125 -32.859375 13.703125 -31.984375 L 13.703125 -3.71875 C 13.703125 -2.832031 14.023438 -2.078125 14.671875 -1.453125 C 15.316406 -0.828125 16.078125 -0.515625 16.953125 -0.515625 L 17.5625 -0.515625 L 17.625 0 L 2.140625 0 L 2.140625 -0.515625 Z M 2.796875 -0.515625 "/></g></g></g><g fill="#000000" fill-opacity="1"><g transform="translate(733.096444, 997.29119)"><g><path d="M 37.578125 -0.515625 L 38.03125 -0.515625 L 38.03125 0 L 21.796875 0 L 21.796875 -0.515625 L 22.25 -0.515625 C 23 -0.515625 23.550781 -0.742188 23.90625 -1.203125 C 24.257812 -1.660156 24.4375 -2.09375 24.4375 -2.5 C 24.4375 -2.90625 24.351562 -3.3125 24.1875 -3.71875 L 21.6875 -9.984375 L 9.765625 -9.984375 L 7.125 -3.71875 C 6.957031 -3.28125 6.875 -2.863281 6.875 -2.46875 C 6.875 -2.082031 7.054688 -1.660156 7.421875 -1.203125 C 7.796875 -0.742188 8.359375 -0.515625 9.109375 -0.515625 L 9.515625 -0.515625 L 9.515625 0 L -1.375 0 L -1.375 -0.515625 L -0.921875 -0.515625 C -0.140625 -0.515625 0.640625 -0.75 1.421875 -1.21875 C 2.203125 -1.695312 2.847656 -2.410156 3.359375 -3.359375 L 15.125 -30 C 16.71875 -33.351562 17.566406 -35.570312 17.671875 -36.65625 L 18.125 -36.65625 L 33.25 -3.46875 C 33.757812 -2.476562 34.40625 -1.738281 35.1875 -1.25 C 35.96875 -0.757812 36.765625 -0.515625 37.578125 -0.515625 Z M 10.640625 -12.125 L 20.828125 -12.125 L 15.890625 -24.640625 Z M 10.640625 -12.125 "/></g></g></g><g fill="#000000" fill-opacity="1"><g transform="translate(801.079218, 997.29119)"><g><path d="M 20.828125 -33.5625 L 20.828125 -3.671875 C 20.859375 -2.785156 21.1875 -2.035156 21.8125 -1.421875 C 22.445312 -0.816406 23.207031 -0.515625 24.09375 -0.515625 L 24.703125 -0.515625 L 24.75 0 L 9.265625 0 L 9.265625 -0.515625 L 9.9375 -0.515625 C 10.78125 -0.515625 11.515625 -0.816406 12.140625 -1.421875 C 12.773438 -2.035156 13.125 -2.765625 13.1875 -3.609375 L 13.1875 -33.5625 L 6.3125 -33.5625 C 4.75 -33.519531 3.507812 -33.023438 2.59375 -32.078125 C 1.675781 -31.128906 1.21875 -29.890625 1.21875 -28.359375 L 1.21875 -27.75 L 0.71875 -27.75 L 0.71875 -36.609375 C 2.101562 -36.035156 4.101562 -35.734375 6.71875 -35.703125 L 27.25 -35.703125 C 28.300781 -35.703125 29.445312 -35.800781 30.6875 -36 C 31.925781 -36.207031 32.78125 -36.410156 33.25 -36.609375 L 33.25 -27.75 L 32.75 -27.75 L 32.75 -28.359375 C 32.75 -30.460938 31.945312 -31.957031 30.34375 -32.84375 C 29.601562 -33.28125 28.707031 -33.519531 27.65625 -33.5625 Z M 20.828125 -33.5625 "/></g></g></g><g fill="#000000" fill-opacity="1"><g transform="translate(866.516072, 997.29119)"><g><path d="M 2.796875 -0.515625 C 3.679688 -0.515625 4.4375 -0.828125 5.0625 -1.453125 C 5.695312 -2.078125 6.03125 -2.832031 6.0625 -3.71875 L 6.0625 -31.984375 C 6.03125 -32.859375 5.695312 -33.601562 5.0625 -34.21875 C 4.4375 -34.832031 3.679688 -35.140625 2.796875 -35.140625 L 2.140625 -35.140625 L 2.140625 -35.640625 L 17.625 -35.640625 L 17.5625 -35.140625 L 16.953125 -35.140625 C 16.078125 -35.140625 15.316406 -34.832031 14.671875 -34.21875 C 14.023438 -33.601562 13.703125 -32.859375 13.703125 -31.984375 L 13.703125 -3.71875 C 13.703125 -2.832031 14.023438 -2.078125 14.671875 -1.453125 C 15.316406 -0.828125 16.078125 -0.515625 16.953125 -0.515625 L 17.5625 -0.515625 L 17.625 0 L 2.140625 0 L 2.140625 -0.515625 Z M 2.796875 -0.515625 "/></g></g></g><g fill="#000000" fill-opacity="1"><g transform="translate(917.695923, 997.29119)"><g><path d="M 27.640625 -35.640625 L 38.546875 -35.640625 L 38.546875 -35.140625 L 38.078125 -35.140625 C 37.304688 -35.140625 36.53125 -34.898438 35.75 -34.421875 C 34.96875 -33.941406 34.320312 -33.226562 33.8125 -32.28125 L 21.734375 -5.65625 C 20.171875 -2.289062 19.34375 -0.0664062 19.25 1.015625 L 18.78125 1.015625 L 3.359375 -32.234375 C 2.847656 -33.179688 2.203125 -33.898438 1.421875 -34.390625 C 0.640625 -34.890625 -0.15625 -35.140625 -0.96875 -35.140625 L -1.375 -35.140625 L -1.375 -35.640625 L 14.8125 -35.640625 L 14.8125 -35.140625 L 14.40625 -35.140625 C 13.65625 -35.140625 13.101562 -34.910156 12.75 -34.453125 C 12.394531 -33.992188 12.21875 -33.5625 12.21875 -33.15625 C 12.21875 -32.75 12.285156 -32.335938 12.421875 -31.921875 L 21.078125 -10.890625 L 30.046875 -31.921875 C 30.210938 -32.367188 30.296875 -32.785156 30.296875 -33.171875 C 30.296875 -33.566406 30.113281 -33.992188 29.75 -34.453125 C 29.394531 -34.910156 28.847656 -35.140625 28.109375 -35.140625 L 27.640625 -35.140625 Z M 27.640625 -35.640625 "/></g></g></g><g fill="#000000" fill-opacity="1"><g transform="translate(986.238794, 997.29119)"><g><path d="M 2.796875 -0.515625 C 3.679688 -0.515625 4.4375 -0.828125 5.0625 -1.453125 C 5.695312 -2.078125 6.03125 -2.832031 6.0625 -3.71875 L 6.0625 -32.078125 C 5.988281 -32.960938 5.734375 -33.609375 5.296875 -34.015625 C 4.484375 -34.765625 3.648438 -35.140625 2.796875 -35.140625 L 2.140625 -35.140625 L 2.140625 -35.640625 L 21.640625 -35.640625 C 23.304688 -35.640625 24.679688 -35.765625 25.765625 -36.015625 C 26.847656 -36.273438 27.507812 -36.457031 27.75 -36.5625 L 27.75 -27.65625 L 27.25 -27.703125 L 27.25 -28.265625 C 27.25 -30.367188 26.46875 -31.863281 24.90625 -32.75 C 24.15625 -33.1875 23.269531 -33.421875 22.25 -33.453125 L 13.703125 -33.453125 L 13.703125 -18.640625 L 20.421875 -18.640625 C 21.671875 -18.671875 22.703125 -19.101562 23.515625 -19.9375 C 24.335938 -20.769531 24.75 -21.796875 24.75 -23.015625 L 24.75 -23.46875 L 25.25 -23.46875 L 25.25 -11.71875 L 24.75 -11.71875 L 24.75 -12.125 C 24.75 -13.375 24.347656 -14.40625 23.546875 -15.21875 C 22.753906 -16.039062 21.742188 -16.46875 20.515625 -16.5 L 13.703125 -16.5 L 13.703125 -2.1875 L 20.375 -2.1875 C 22.851562 -2.1875 24.929688 -2.898438 26.609375 -4.328125 C 28.285156 -5.753906 29.53125 -7.773438 30.34375 -10.390625 L 30.859375 -10.390625 L 28.515625 0 L 2.140625 0 L 2.140625 -0.515625 Z M 2.796875 -0.515625 "/></g></g></g></svg>